<svg xmlns="http://www.w3.org/2000/svg" xmlns:xlink="http://www.w3.org/1999/xlink" width="500" zoomAndPan="magnify" viewBox="0 0 375 374.999991" height="500" preserveAspectRatio="xMidYMid meet" version="1.0"><defs><filter x="0%" y="0%" width="100%" height="100%" id="bdf81c69ab"><feColorMatrix values="0 0 0 0 1 0 0 0 0 1 0 0 0 0 1 0 0 0 1 0" color-interpolation-filters="sRGB"/></filter><g/><clipPath id="5bb918d1e9"><path d="M 165.875 242.40625 L 270.585938 242.40625 L 270.585938 262.835938 L 165.875 262.835938 Z M 165.875 242.40625 " clip-rule="nonzero"/></clipPath><clipPath id="a83d2f311b"><path d="M 176.09375 242.40625 L 260.34375 242.40625 C 263.054688 242.40625 265.652344 243.480469 267.566406 245.398438 C 269.484375 247.3125 270.558594 249.910156 270.558594 252.621094 C 270.558594 255.332031 269.484375 257.929688 267.566406 259.84375 C 265.652344 261.761719 263.054688 262.835938 260.34375 262.835938 L 176.09375 262.835938 C 173.382812 262.835938 170.785156 261.761719 168.867188 259.84375 C 166.953125 257.929688 165.875 255.332031 165.875 252.621094 C 165.875 249.910156 166.953125 247.3125 168.867188 245.398438 C 170.785156 243.480469 173.382812 242.40625 176.09375 242.40625 Z M 176.09375 242.40625 " clip-rule="nonzero"/></clipPath><clipPath id="a6e12e2918"><path d="M 0.875 0.40625 L 105.585938 0.40625 L 105.585938 20.835938 L 0.875 20.835938 Z M 0.875 0.40625 " clip-rule="nonzero"/></clipPath><clipPath id="2a022291b0"><path d="M 11.09375 0.40625 L 95.34375 0.40625 C 98.054688 0.40625 100.652344 1.480469 102.566406 3.398438 C 104.484375 5.3125 105.558594 7.910156 105.558594 10.621094 C 105.558594 13.332031 104.484375 15.929688 102.566406 17.84375 C 100.652344 19.761719 98.054688 20.835938 95.34375 20.835938 L 11.09375 20.835938 C 8.382812 20.835938 5.785156 19.761719 3.867188 17.84375 C 1.953125 15.929688 0.875 13.332031 0.875 10.621094 C 0.875 7.910156 1.953125 5.3125 3.867188 3.398438 C 5.785156 1.480469 8.382812 0.40625 11.09375 0.40625 Z M 11.09375 0.40625 " clip-rule="nonzero"/></clipPath><clipPath id="ce8da15b08"><rect x="0" width="106" y="0" height="21"/></clipPath><clipPath id="52949e8eb9"><path d="M 91.046875 212 L 166 212 L 166 268 L 91.046875 268 Z M 91.046875 212 " clip-rule="nonzero"/></clipPath><clipPath id="b1632126d6"><path d="M 164 108.863281 L 198.296875 108.863281 L 198.296875 142 L 164 142 Z M 164 108.863281 " clip-rule="nonzero"/></clipPath><clipPath id="f26dd9dc3f"><path d="M 90 106 L 131 106 L 131 138 L 90 138 Z M 90 106 " clip-rule="nonzero"/></clipPath><clipPath id="934a777b09"><path d="M 86.195312 119.8125 L 126.097656 99.007812 L 139.621094 124.945312 L 99.71875 145.75 Z M 86.195312 119.8125 " clip-rule="nonzero"/></clipPath><clipPath id="0743fd0abf"><path d="M 86.195312 119.8125 L 126.097656 99.007812 L 139.621094 124.945312 L 99.71875 145.75 Z M 86.195312 119.8125 " clip-rule="nonzero"/></clipPath><clipPath id="60c354beca"><path d="M 0.601562 35 L 39 35 L 39 74 L 0.601562 74 Z M 0.601562 35 " clip-rule="nonzero"/></clipPath><clipPath id="931a2e06a2"><rect x="0" width="127" y="0" height="82"/></clipPath><clipPath id="819806ccb9"><path d="M 141.75 217.597656 L 298.5 217.597656 L 298.5 288.097656 L 141.75 288.097656 Z M 141.75 217.597656 " clip-rule="nonzero"/></clipPath><clipPath id="01fa1facd7"><path d="M 0.75 0.597656 L 157.5 0.597656 L 157.5 71.097656 L 0.75 71.097656 Z M 0.75 0.597656 " clip-rule="nonzero"/></clipPath><clipPath id="10be8f6572"><path d="M 20.253906 1.347656 L 138.746094 1.347656 L 138.746094 68.847656 L 20.253906 68.847656 Z M 20.253906 1.347656 " clip-rule="nonzero"/></clipPath><linearGradient x1="-9.358" gradientTransform="matrix(0.748641, 0, 0, 0.746401, 27.257865, 26.513836)" y1="11.5" x2="148.92" gradientUnits="userSpaceOnUse" y2="11.5" id="0c5d9e1d09"><stop stop-opacity="1" stop-color="rgb(0%, 29.019165%, 67.83905%)" offset="0"/><stop stop-opacity="1" stop-color="rgb(0%, 29.019165%, 67.83905%)" offset="0.125"/><stop stop-opacity="1" stop-color="rgb(0%, 29.019165%, 67.83905%)" offset="0.1875"/><stop stop-opacity="1" stop-color="rgb(0%, 29.019165%, 67.83905%)" offset="0.21875"/><stop stop-opacity="1" stop-color="rgb(0.511169%, 29.104614%, 67.982483%)" offset="0.222656"/><stop stop-opacity="1" stop-color="rgb(1.023865%, 29.190063%, 68.127441%)" offset="0.226562"/><stop stop-opacity="1" stop-color="rgb(1.577759%, 29.283142%, 68.283081%)" offset="0.230469"/><stop stop-opacity="1" stop-color="rgb(2.131653%, 29.376221%, 68.438721%)" offset="0.234375"/><stop stop-opacity="1" stop-color="rgb(2.685547%, 29.469299%, 68.59436%)" offset="0.238281"/><stop stop-opacity="1" stop-color="rgb(3.239441%, 29.562378%, 68.75%)" offset="0.242188"/><stop stop-opacity="1" stop-color="rgb(3.793335%, 29.653931%, 68.904114%)" offset="0.246094"/><stop stop-opacity="1" stop-color="rgb(4.347229%, 29.747009%, 69.059753%)" offset="0.25"/><stop stop-opacity="1" stop-color="rgb(4.901123%, 29.840088%, 69.215393%)" offset="0.253906"/><stop stop-opacity="1" stop-color="rgb(5.455017%, 29.933167%, 69.371033%)" offset="0.257812"/><stop stop-opacity="1" stop-color="rgb(6.008911%, 30.024719%, 69.526672%)" offset="0.261719"/><stop stop-opacity="1" stop-color="rgb(6.562805%, 30.117798%, 69.682312%)" offset="0.265625"/><stop stop-opacity="1" stop-color="rgb(7.116699%, 30.210876%, 69.837952%)" offset="0.269531"/><stop stop-opacity="1" stop-color="rgb(7.672119%, 30.303955%, 69.993591%)" offset="0.273438"/><stop stop-opacity="1" stop-color="rgb(8.226013%, 30.397034%, 70.149231%)" offset="0.277344"/><stop stop-opacity="1" stop-color="rgb(8.779907%, 30.490112%, 70.304871%)" offset="0.28125"/><stop stop-opacity="1" stop-color="rgb(9.333801%, 30.581665%, 70.46051%)" offset="0.285156"/><stop stop-opacity="1" stop-color="rgb(9.887695%, 30.674744%, 70.61615%)" offset="0.289062"/><stop stop-opacity="1" stop-color="rgb(10.441589%, 30.767822%, 70.77179%)" offset="0.292969"/><stop stop-opacity="1" stop-color="rgb(10.995483%, 30.860901%, 70.927429%)" offset="0.296875"/><stop stop-opacity="1" stop-color="rgb(11.549377%, 30.952454%, 71.083069%)" offset="0.300781"/><stop stop-opacity="1" stop-color="rgb(12.103271%, 31.045532%, 71.238708%)" offset="0.304687"/><stop stop-opacity="1" stop-color="rgb(12.657166%, 31.138611%, 71.394348%)" offset="0.308594"/><stop stop-opacity="1" stop-color="rgb(13.21106%, 31.231689%, 71.549988%)" offset="0.3125"/><stop stop-opacity="1" stop-color="rgb(13.764954%, 31.323242%, 71.705627%)" offset="0.316406"/><stop stop-opacity="1" stop-color="rgb(14.320374%, 31.416321%, 71.861267%)" offset="0.320312"/><stop stop-opacity="1" stop-color="rgb(14.874268%, 31.509399%, 72.016907%)" offset="0.324219"/><stop stop-opacity="1" stop-color="rgb(15.428162%, 31.602478%, 72.172546%)" offset="0.328125"/><stop stop-opacity="1" stop-color="rgb(15.982056%, 31.695557%, 72.328186%)" offset="0.332031"/><stop stop-opacity="1" stop-color="rgb(16.53595%, 31.788635%, 72.483826%)" offset="0.335938"/><stop stop-opacity="1" stop-color="rgb(17.089844%, 31.880188%, 72.639465%)" offset="0.339844"/><stop stop-opacity="1" stop-color="rgb(17.643738%, 31.973267%, 72.795105%)" offset="0.34375"/><stop stop-opacity="1" stop-color="rgb(18.197632%, 32.066345%, 72.950745%)" offset="0.347656"/><stop stop-opacity="1" stop-color="rgb(18.751526%, 32.159424%, 73.106384%)" offset="0.351562"/><stop stop-opacity="1" stop-color="rgb(19.30542%, 32.250977%, 73.262024%)" offset="0.355469"/><stop stop-opacity="1" stop-color="rgb(19.859314%, 32.344055%, 73.417664%)" offset="0.359375"/><stop stop-opacity="1" stop-color="rgb(20.413208%, 32.437134%, 73.573303%)" offset="0.363281"/><stop stop-opacity="1" stop-color="rgb(20.967102%, 32.530212%, 73.728943%)" offset="0.367187"/><stop stop-opacity="1" stop-color="rgb(21.520996%, 32.623291%, 73.884583%)" offset="0.371094"/><stop stop-opacity="1" stop-color="rgb(22.076416%, 32.71637%, 74.040222%)" offset="0.375"/><stop stop-opacity="1" stop-color="rgb(22.63031%, 32.807922%, 74.195862%)" offset="0.378906"/><stop stop-opacity="1" stop-color="rgb(23.184204%, 32.901001%, 74.351501%)" offset="0.382812"/><stop stop-opacity="1" stop-color="rgb(23.738098%, 32.99408%, 74.507141%)" offset="0.386719"/><stop stop-opacity="1" stop-color="rgb(24.291992%, 33.087158%, 74.662781%)" offset="0.390625"/><stop stop-opacity="1" stop-color="rgb(24.845886%, 33.178711%, 74.81842%)" offset="0.394531"/><stop stop-opacity="1" stop-color="rgb(25.39978%, 33.27179%, 74.97406%)" offset="0.398437"/><stop stop-opacity="1" stop-color="rgb(25.953674%, 33.364868%, 75.1297%)" offset="0.402344"/><stop stop-opacity="1" stop-color="rgb(26.507568%, 33.457947%, 75.285339%)" offset="0.40625"/><stop stop-opacity="1" stop-color="rgb(27.061462%, 33.551025%, 75.440979%)" offset="0.410156"/><stop stop-opacity="1" stop-color="rgb(27.615356%, 33.644104%, 75.596619%)" offset="0.414062"/><stop stop-opacity="1" stop-color="rgb(28.16925%, 33.735657%, 75.750732%)" offset="0.417969"/><stop stop-opacity="1" stop-color="rgb(28.72467%, 33.828735%, 75.906372%)" offset="0.421875"/><stop stop-opacity="1" stop-color="rgb(29.278564%, 33.921814%, 76.062012%)" offset="0.425781"/><stop stop-opacity="1" stop-color="rgb(29.832458%, 34.014893%, 76.217651%)" offset="0.429687"/><stop stop-opacity="1" stop-color="rgb(30.386353%, 34.106445%, 76.373291%)" offset="0.433594"/><stop stop-opacity="1" stop-color="rgb(30.940247%, 34.199524%, 76.528931%)" offset="0.4375"/><stop stop-opacity="1" stop-color="rgb(31.494141%, 34.292603%, 76.68457%)" offset="0.441406"/><stop stop-opacity="1" stop-color="rgb(32.048035%, 34.385681%, 76.84021%)" offset="0.445312"/><stop stop-opacity="1" stop-color="rgb(32.601929%, 34.477234%, 76.99585%)" offset="0.449219"/><stop stop-opacity="1" stop-color="rgb(33.155823%, 34.570312%, 77.151489%)" offset="0.453125"/><stop stop-opacity="1" stop-color="rgb(33.709717%, 34.663391%, 77.307129%)" offset="0.457031"/><stop stop-opacity="1" stop-color="rgb(34.263611%, 34.75647%, 77.462769%)" offset="0.460938"/><stop stop-opacity="1" stop-color="rgb(34.817505%, 34.849548%, 77.618408%)" offset="0.464844"/><stop stop-opacity="1" stop-color="rgb(35.371399%, 34.942627%, 77.774048%)" offset="0.46875"/><stop stop-opacity="1" stop-color="rgb(35.925293%, 35.03418%, 77.929688%)" offset="0.472656"/><stop stop-opacity="1" stop-color="rgb(36.480713%, 35.127258%, 78.085327%)" offset="0.476562"/><stop stop-opacity="1" stop-color="rgb(37.034607%, 35.220337%, 78.240967%)" offset="0.480469"/><stop stop-opacity="1" stop-color="rgb(37.588501%, 35.313416%, 78.396606%)" offset="0.484375"/><stop stop-opacity="1" stop-color="rgb(38.142395%, 35.404968%, 78.552246%)" offset="0.488281"/><stop stop-opacity="1" stop-color="rgb(38.696289%, 35.498047%, 78.707886%)" offset="0.492187"/><stop stop-opacity="1" stop-color="rgb(39.250183%, 35.591125%, 78.863525%)" offset="0.496094"/><stop stop-opacity="1" stop-color="rgb(39.804077%, 35.684204%, 79.019165%)" offset="0.5"/><stop stop-opacity="1" stop-color="rgb(40.357971%, 35.777283%, 79.174805%)" offset="0.503906"/><stop stop-opacity="1" stop-color="rgb(40.911865%, 35.870361%, 79.330444%)" offset="0.507812"/><stop stop-opacity="1" stop-color="rgb(41.465759%, 35.961914%, 79.486084%)" offset="0.511719"/><stop stop-opacity="1" stop-color="rgb(42.019653%, 36.054993%, 79.641724%)" offset="0.515625"/><stop stop-opacity="1" stop-color="rgb(42.573547%, 36.148071%, 79.797363%)" offset="0.519531"/><stop stop-opacity="1" stop-color="rgb(43.128967%, 36.24115%, 79.953003%)" offset="0.523438"/><stop stop-opacity="1" stop-color="rgb(43.682861%, 36.332703%, 80.108643%)" offset="0.527344"/><stop stop-opacity="1" stop-color="rgb(44.236755%, 36.425781%, 80.264282%)" offset="0.53125"/><stop stop-opacity="1" stop-color="rgb(44.790649%, 36.51886%, 80.419922%)" offset="0.535156"/><stop stop-opacity="1" stop-color="rgb(45.344543%, 36.611938%, 80.575562%)" offset="0.539062"/><stop stop-opacity="1" stop-color="rgb(45.898438%, 36.705017%, 80.731201%)" offset="0.542969"/><stop stop-opacity="1" stop-color="rgb(46.452332%, 36.798096%, 80.886841%)" offset="0.546875"/><stop stop-opacity="1" stop-color="rgb(47.006226%, 36.889648%, 81.04248%)" offset="0.550781"/><stop stop-opacity="1" stop-color="rgb(47.56012%, 36.982727%, 81.19812%)" offset="0.554687"/><stop stop-opacity="1" stop-color="rgb(48.114014%, 37.075806%, 81.35376%)" offset="0.558594"/><stop stop-opacity="1" stop-color="rgb(48.667908%, 37.168884%, 81.509399%)" offset="0.5625"/><stop stop-opacity="1" stop-color="rgb(49.221802%, 37.260437%, 81.665039%)" offset="0.566406"/><stop stop-opacity="1" stop-color="rgb(49.777222%, 37.353516%, 81.820679%)" offset="0.570312"/><stop stop-opacity="1" stop-color="rgb(50.331116%, 37.446594%, 81.976318%)" offset="0.574219"/><stop stop-opacity="1" stop-color="rgb(50.88501%, 37.539673%, 82.131958%)" offset="0.578125"/><stop stop-opacity="1" stop-color="rgb(51.438904%, 37.631226%, 82.287598%)" offset="0.582031"/><stop stop-opacity="1" stop-color="rgb(51.992798%, 37.724304%, 82.443237%)" offset="0.585937"/><stop stop-opacity="1" stop-color="rgb(52.546692%, 37.817383%, 82.598877%)" offset="0.589844"/><stop stop-opacity="1" stop-color="rgb(53.100586%, 37.910461%, 82.754517%)" offset="0.59375"/><stop stop-opacity="1" stop-color="rgb(53.65448%, 38.00354%, 82.90863%)" offset="0.597656"/><stop stop-opacity="1" stop-color="rgb(54.208374%, 38.096619%, 83.06427%)" offset="0.601562"/><stop stop-opacity="1" stop-color="rgb(54.762268%, 38.188171%, 83.21991%)" offset="0.605469"/><stop stop-opacity="1" stop-color="rgb(55.316162%, 38.28125%, 83.375549%)" offset="0.609375"/><stop stop-opacity="1" stop-color="rgb(55.870056%, 38.374329%, 83.531189%)" offset="0.613281"/><stop stop-opacity="1" stop-color="rgb(56.42395%, 38.467407%, 83.686829%)" offset="0.617188"/><stop stop-opacity="1" stop-color="rgb(56.977844%, 38.55896%, 83.842468%)" offset="0.621094"/><stop stop-opacity="1" stop-color="rgb(57.533264%, 38.652039%, 83.998108%)" offset="0.625"/><stop stop-opacity="1" stop-color="rgb(58.087158%, 38.745117%, 84.153748%)" offset="0.628906"/><stop stop-opacity="1" stop-color="rgb(58.641052%, 38.838196%, 84.309387%)" offset="0.632812"/><stop stop-opacity="1" stop-color="rgb(59.194946%, 38.931274%, 84.465027%)" offset="0.636719"/><stop stop-opacity="1" stop-color="rgb(59.74884%, 39.024353%, 84.620667%)" offset="0.640625"/><stop stop-opacity="1" stop-color="rgb(60.302734%, 39.115906%, 84.776306%)" offset="0.644531"/><stop stop-opacity="1" stop-color="rgb(60.856628%, 39.208984%, 84.931946%)" offset="0.648437"/><stop stop-opacity="1" stop-color="rgb(61.410522%, 39.302063%, 85.087585%)" offset="0.652344"/><stop stop-opacity="1" stop-color="rgb(61.964417%, 39.395142%, 85.243225%)" offset="0.65625"/><stop stop-opacity="1" stop-color="rgb(62.518311%, 39.486694%, 85.398865%)" offset="0.660156"/><stop stop-opacity="1" stop-color="rgb(63.072205%, 39.579773%, 85.554504%)" offset="0.664062"/><stop stop-opacity="1" stop-color="rgb(63.626099%, 39.672852%, 85.710144%)" offset="0.667969"/><stop stop-opacity="1" stop-color="rgb(64.181519%, 39.76593%, 85.865784%)" offset="0.671875"/><stop stop-opacity="1" stop-color="rgb(64.735413%, 39.859009%, 86.021423%)" offset="0.675781"/><stop stop-opacity="1" stop-color="rgb(65.289307%, 39.952087%, 86.177063%)" offset="0.679687"/><stop stop-opacity="1" stop-color="rgb(65.843201%, 40.04364%, 86.332703%)" offset="0.683594"/><stop stop-opacity="1" stop-color="rgb(66.397095%, 40.136719%, 86.488342%)" offset="0.6875"/><stop stop-opacity="1" stop-color="rgb(66.950989%, 40.229797%, 86.643982%)" offset="0.691406"/><stop stop-opacity="1" stop-color="rgb(67.504883%, 40.322876%, 86.799622%)" offset="0.695312"/><stop stop-opacity="1" stop-color="rgb(68.058777%, 40.414429%, 86.955261%)" offset="0.699219"/><stop stop-opacity="1" stop-color="rgb(68.612671%, 40.507507%, 87.110901%)" offset="0.703125"/><stop stop-opacity="1" stop-color="rgb(69.166565%, 40.600586%, 87.266541%)" offset="0.707031"/><stop stop-opacity="1" stop-color="rgb(69.720459%, 40.693665%, 87.42218%)" offset="0.710938"/><stop stop-opacity="1" stop-color="rgb(70.274353%, 40.785217%, 87.57782%)" offset="0.714844"/><stop stop-opacity="1" stop-color="rgb(70.828247%, 40.878296%, 87.733459%)" offset="0.71875"/><stop stop-opacity="1" stop-color="rgb(71.382141%, 40.971375%, 87.889099%)" offset="0.722656"/><stop stop-opacity="1" stop-color="rgb(71.937561%, 41.064453%, 88.044739%)" offset="0.726562"/><stop stop-opacity="1" stop-color="rgb(72.491455%, 41.157532%, 88.200378%)" offset="0.730469"/><stop stop-opacity="1" stop-color="rgb(73.045349%, 41.25061%, 88.356018%)" offset="0.734375"/><stop stop-opacity="1" stop-color="rgb(73.599243%, 41.342163%, 88.511658%)" offset="0.738281"/><stop stop-opacity="1" stop-color="rgb(74.153137%, 41.435242%, 88.667297%)" offset="0.742187"/><stop stop-opacity="1" stop-color="rgb(74.707031%, 41.52832%, 88.822937%)" offset="0.746094"/><stop stop-opacity="1" stop-color="rgb(75.260925%, 41.621399%, 88.978577%)" offset="0.75"/><stop stop-opacity="1" stop-color="rgb(75.814819%, 41.712952%, 89.134216%)" offset="0.753906"/><stop stop-opacity="1" stop-color="rgb(76.368713%, 41.80603%, 89.289856%)" offset="0.757812"/><stop stop-opacity="1" stop-color="rgb(76.922607%, 41.899109%, 89.445496%)" offset="0.761719"/><stop stop-opacity="1" stop-color="rgb(77.476501%, 41.992188%, 89.601135%)" offset="0.765625"/><stop stop-opacity="1" stop-color="rgb(78.030396%, 42.085266%, 89.755249%)" offset="0.769531"/><stop stop-opacity="1" stop-color="rgb(78.585815%, 42.178345%, 89.910889%)" offset="0.773438"/><stop stop-opacity="1" stop-color="rgb(79.096985%, 42.263794%, 90.054321%)" offset="0.777344"/><stop stop-opacity="1" stop-color="rgb(79.60968%, 42.349243%, 90.19928%)" offset="0.78125"/><stop stop-opacity="1" stop-color="rgb(79.60968%, 42.349243%, 90.19928%)" offset="0.8125"/><stop stop-opacity="1" stop-color="rgb(79.60968%, 42.349243%, 90.19928%)" offset="0.875"/><stop stop-opacity="1" stop-color="rgb(79.60968%, 42.349243%, 90.19928%)" offset="1"/></linearGradient><clipPath id="377778a3aa"><rect x="0" width="158" y="0" height="72"/></clipPath><clipPath id="2b980a16fc"><path d="M 0.75 0.597656 L 157.5 0.597656 L 157.5 71.097656 L 0.75 71.097656 Z M 0.75 0.597656 " clip-rule="nonzero"/></clipPath><clipPath id="abf93bc44c"><rect x="0" width="158" y="0" height="72"/></clipPath><clipPath id="3248e1c32a"><rect x="0" width="158" y="0" height="72"/></clipPath><mask id="e670a8820d"><g filter="url(#bdf81c69ab)"><g><g clip-path="url(#3248e1c32a)"><g clip-path="url(#2b980a16fc)"><g><g clip-path="url(#abf93bc44c)"><g fill="#000000" fill-opacity="1"><g transform="translate(46.018308, 39.597439)"><g><path d="M 5.453125 0.203125 C 4.492188 0.203125 3.625 0.00390625 2.84375 -0.390625 C 2.070312 -0.796875 1.46875 -1.359375 1.03125 -2.078125 C 0.59375 -2.804688 0.375 -3.632812 0.375 -4.5625 C 0.375 -5.476562 0.59375 -6.296875 1.03125 -7.015625 C 1.46875 -7.742188 2.070312 -8.304688 2.84375 -8.703125 C 3.625 -9.109375 4.492188 -9.3125 5.453125 -9.3125 C 6.335938 -9.3125 7.125 -9.15625 7.8125 -8.84375 C 8.507812 -8.53125 9.085938 -8.082031 9.546875 -7.5 L 7.59375 -5.765625 C 7.03125 -6.472656 6.367188 -6.828125 5.609375 -6.828125 C 4.960938 -6.828125 4.441406 -6.617188 4.046875 -6.203125 C 3.660156 -5.796875 3.46875 -5.25 3.46875 -4.5625 C 3.46875 -3.863281 3.660156 -3.304688 4.046875 -2.890625 C 4.441406 -2.484375 4.960938 -2.28125 5.609375 -2.28125 C 6.367188 -2.28125 7.03125 -2.632812 7.59375 -3.34375 L 9.546875 -1.609375 C 9.085938 -1.023438 8.507812 -0.578125 7.8125 -0.265625 C 7.125 0.046875 6.335938 0.203125 5.453125 0.203125 Z M 5.453125 0.203125 "/></g></g></g><g fill="#000000" fill-opacity="1"><g transform="translate(59.940273, 39.597439)"><g><path d="M 0.734375 -9.109375 L 3.8125 -9.109375 L 3.8125 -2.375 L 7.921875 -2.375 L 7.921875 0 L 0.734375 0 Z M 0.734375 -9.109375 "/></g></g></g><g fill="#000000" fill-opacity="1"><g transform="translate(72.340358, 39.597439)"><g><path d="M 6.953125 -1.59375 L 3.484375 -1.59375 L 2.875 0 L -0.25 0 L 3.734375 -9.109375 L 6.75 -9.109375 L 10.734375 0 L 7.5625 0 Z M 6.109375 -3.796875 L 5.21875 -6.09375 L 4.328125 -3.796875 Z M 6.109375 -3.796875 "/></g></g></g><g fill="#000000" fill-opacity="1"><g transform="translate(87.0688, 39.597439)"><g><path d="M 4.140625 0.203125 C 3.378906 0.203125 2.640625 0.117188 1.921875 -0.046875 C 1.210938 -0.210938 0.628906 -0.441406 0.171875 -0.734375 L 1.15625 -2.96875 C 1.59375 -2.71875 2.078125 -2.515625 2.609375 -2.359375 C 3.148438 -2.210938 3.671875 -2.140625 4.171875 -2.140625 C 4.585938 -2.140625 4.882812 -2.175781 5.0625 -2.25 C 5.25 -2.332031 5.34375 -2.457031 5.34375 -2.625 C 5.34375 -2.820312 5.222656 -2.96875 4.984375 -3.0625 C 4.753906 -3.15625 4.363281 -3.257812 3.8125 -3.375 C 3.113281 -3.519531 2.53125 -3.675781 2.0625 -3.84375 C 1.59375 -4.007812 1.179688 -4.285156 0.828125 -4.671875 C 0.484375 -5.066406 0.3125 -5.59375 0.3125 -6.25 C 0.3125 -6.820312 0.472656 -7.34375 0.796875 -7.8125 C 1.117188 -8.28125 1.597656 -8.644531 2.234375 -8.90625 C 2.867188 -9.175781 3.644531 -9.3125 4.5625 -9.3125 C 5.1875 -9.3125 5.796875 -9.242188 6.390625 -9.109375 C 6.992188 -8.984375 7.523438 -8.789062 7.984375 -8.53125 L 7.0625 -6.296875 C 6.175781 -6.742188 5.332031 -6.96875 4.53125 -6.96875 C 3.738281 -6.96875 3.34375 -6.78125 3.34375 -6.40625 C 3.34375 -6.21875 3.457031 -6.078125 3.6875 -5.984375 C 3.925781 -5.898438 4.316406 -5.804688 4.859375 -5.703125 C 5.546875 -5.566406 6.128906 -5.414062 6.609375 -5.25 C 7.085938 -5.082031 7.5 -4.804688 7.84375 -4.421875 C 8.195312 -4.046875 8.375 -3.523438 8.375 -2.859375 C 8.375 -2.285156 8.210938 -1.765625 7.890625 -1.296875 C 7.578125 -0.835938 7.097656 -0.472656 6.453125 -0.203125 C 5.816406 0.0664062 5.046875 0.203125 4.140625 0.203125 Z M 4.140625 0.203125 "/></g></g></g><g fill="#000000" fill-opacity="1"><g transform="translate(99.859082, 39.597439)"><g><path d="M 4.140625 0.203125 C 3.378906 0.203125 2.640625 0.117188 1.921875 -0.046875 C 1.210938 -0.210938 0.628906 -0.441406 0.171875 -0.734375 L 1.15625 -2.96875 C 1.59375 -2.71875 2.078125 -2.515625 2.609375 -2.359375 C 3.148438 -2.210938 3.671875 -2.140625 4.171875 -2.140625 C 4.585938 -2.140625 4.882812 -2.175781 5.0625 -2.25 C 5.25 -2.332031 5.34375 -2.457031 5.34375 -2.625 C 5.34375 -2.820312 5.222656 -2.96875 4.984375 -3.0625 C 4.753906 -3.15625 4.363281 -3.257812 3.8125 -3.375 C 3.113281 -3.519531 2.53125 -3.675781 2.0625 -3.84375 C 1.59375 -4.007812 1.179688 -4.285156 0.828125 -4.671875 C 0.484375 -5.066406 0.3125 -5.59375 0.3125 -6.25 C 0.3125 -6.820312 0.472656 -7.34375 0.796875 -7.8125 C 1.117188 -8.28125 1.597656 -8.644531 2.234375 -8.90625 C 2.867188 -9.175781 3.644531 -9.3125 4.5625 -9.3125 C 5.1875 -9.3125 5.796875 -9.242188 6.390625 -9.109375 C 6.992188 -8.984375 7.523438 -8.789062 7.984375 -8.53125 L 7.0625 -6.296875 C 6.175781 -6.742188 5.332031 -6.96875 4.53125 -6.96875 C 3.738281 -6.96875 3.34375 -6.78125 3.34375 -6.40625 C 3.34375 -6.21875 3.457031 -6.078125 3.6875 -5.984375 C 3.925781 -5.898438 4.316406 -5.804688 4.859375 -5.703125 C 5.546875 -5.566406 6.128906 -5.414062 6.609375 -5.25 C 7.085938 -5.082031 7.5 -4.804688 7.84375 -4.421875 C 8.195312 -4.046875 8.375 -3.523438 8.375 -2.859375 C 8.375 -2.285156 8.210938 -1.765625 7.890625 -1.296875 C 7.578125 -0.835938 7.097656 -0.472656 6.453125 -0.203125 C 5.816406 0.0664062 5.046875 0.203125 4.140625 0.203125 Z M 4.140625 0.203125 "/></g></g></g></g></g></g></g></g></g></mask><clipPath id="e926fc1842"><path d="M 20.253906 1.347656 L 138.746094 1.347656 L 138.746094 68.847656 L 20.253906 68.847656 Z M 20.253906 1.347656 " clip-rule="nonzero"/></clipPath><clipPath id="3e4407b275"><rect x="0" width="158" y="0" height="72"/></clipPath><clipPath id="4d0aec88ef"><rect x="0" width="158" y="0" height="72"/></clipPath></defs><g clip-path="url(#5bb918d1e9)"><g clip-path="url(#a83d2f311b)"><g transform="matrix(1, 0, 0, 1, 165, 242)"><g clip-path="url(#ce8da15b08)"><g clip-path="url(#a6e12e2918)"><g clip-path="url(#2a022291b0)"><path fill="#fbb03b" d="M 0.875 0.40625 L 105.585938 0.40625 L 105.585938 20.835938 L 0.875 20.835938 Z M 0.875 0.40625 " fill-opacity="1" fill-rule="nonzero"/></g></g></g></g></g></g><path fill="#234777" d="M 155.789062 206.097656 C 152.15625 200.757812 148.105469 196.007812 144.613281 192.070312 C 144.359375 192.179688 144.082031 192.292969 143.828125 192.40625 C 134.078125 196.707031 127.457031 202.015625 126.898438 213.890625 C 126.8125 215.820312 127.398438 217.71875 128.601562 219.203125 C 136.089844 228.617188 141.257812 235.546875 142.824219 241.21875 C 150.425781 234.960938 155.257812 225.179688 157.214844 212.160156 C 157.492188 210.066406 156.992188 207.886719 155.789062 206.097656 Z M 155.789062 206.097656 " fill-opacity="1" fill-rule="nonzero"/><path fill="#234777" d="M 139.359375 143.308594 C 139.890625 134.621094 133.265625 127.132812 124.550781 126.628906 C 115.832031 126.125 108.371094 132.71875 107.867188 141.4375 C 107.335938 150.128906 113.960938 157.617188 122.675781 158.121094 C 131.339844 158.621094 138.828125 152 139.359375 143.308594 Z M 139.359375 143.308594 " fill-opacity="1" fill-rule="nonzero"/><path fill="#fbb03b" d="M 140.058594 162.925781 C 119.242188 166.671875 104.261719 188.605469 120.890625 209.589844 C 122.035156 211.042969 123.152344 212.441406 124.242188 213.78125 C 124.914062 200.230469 132.847656 194.390625 142.738281 190 C 151.710938 186.035156 162.328125 183.269531 170.625 176.980469 C 187.867188 163.929688 182.363281 143.421875 182.363281 143.421875 C 173.8125 158.707031 156.765625 159.90625 140.058594 162.925781 Z M 140.058594 162.925781 " fill-opacity="1" fill-rule="nonzero"/><g clip-path="url(#52949e8eb9)"><path fill="#fbb03b" d="M 143.300781 244.210938 C 128.070312 255.722656 106.078125 252.898438 91.046875 247.003906 C 105.578125 271.480469 145.085938 275.953125 160.652344 251.195312 C 169.171875 237.671875 166.128906 224.175781 159.785156 212.605469 C 157.464844 228.171875 151.316406 238.175781 143.300781 244.210938 Z M 143.300781 244.210938 " fill-opacity="1" fill-rule="nonzero"/></g><g clip-path="url(#b1632126d6)"><path fill="#fbb03b" d="M 198.625 121.320312 L 185.546875 121.320312 L 181.496094 108.886719 L 177.472656 121.320312 L 164.394531 121.320312 L 174.957031 129.003906 L 170.933594 141.4375 L 181.496094 133.753906 L 192.085938 141.4375 L 188.035156 129.003906 Z M 198.625 121.320312 " fill-opacity="1" fill-rule="nonzero"/></g><g clip-path="url(#f26dd9dc3f)"><g clip-path="url(#934a777b09)"><g clip-path="url(#0743fd0abf)"><path fill="#fbb03b" d="M 111.414062 119.539062 L 116.378906 113.917969 L 108.914062 114.738281 L 103.964844 120.390625 Z M 122.785156 123.789062 L 121.304688 120.949219 L 97.769531 123.636719 L 107.660156 112.335938 L 122.585938 110.699219 L 114.820312 119.496094 L 119.367188 118.976562 L 130.128906 106.789062 L 106.140625 109.421875 L 90.246094 127.582031 L 118.273438 124.378906 L 115.546875 127.464844 L 100.960938 129.132812 L 105.113281 137.097656 L 119.699219 135.429688 L 129.417969 124.425781 L 125.265625 116.460938 L 122.761719 119.296875 L 124.441406 122.519531 L 123.53125 122.582031 Z M 122.785156 123.789062 " fill-opacity="1" fill-rule="evenodd"/></g></g></g><g transform="matrix(1, 0, 0, 1, 165, 159)"><g clip-path="url(#931a2e06a2)"><g fill="#ffffff" fill-opacity="1"><g transform="translate(2.376702, 37.345352)"><g><path d="M 14.90625 -9.9375 L 14.90625 1.671875 L 1.894531 1.671875 L 1.894531 -35.671875 L 15.640625 -35.671875 C 20.558594 -35.671875 24.375 -34.550781 27.089844 -32.304688 C 29.898438 -29.976562 31.304688 -26.636719 31.304688 -22.28125 C 31.304688 -17.8125 29.835938 -14.339844 26.898438 -11.867188 C 24.050781 -9.464844 20.132812 -8.265625 15.152344 -8.265625 L 13.234375 -8.265625 L 13.234375 -9.9375 Z M 11.5625 -11.609375 L 15.152344 -11.609375 C 19.320312 -11.609375 22.519531 -12.546875 24.746094 -14.425781 C 26.890625 -16.230469 27.960938 -18.847656 27.960938 -22.28125 C 27.960938 -25.589844 26.960938 -28.070312 24.957031 -29.726562 C 22.863281 -31.460938 19.753906 -32.328125 15.640625 -32.328125 L 3.566406 -32.328125 L 3.566406 -34 L 5.234375 -34 L 5.234375 0 L 3.566406 0 L 3.566406 -1.671875 L 13.234375 -1.671875 L 13.234375 0 L 11.5625 0 Z M 15.640625 -24.753906 L 13.234375 -24.753906 L 13.234375 -26.425781 L 14.90625 -26.425781 L 14.90625 -17.511719 L 13.234375 -17.511719 L 13.234375 -19.183594 L 15.152344 -19.183594 C 16.253906 -19.183594 17.058594 -19.425781 17.566406 -19.90625 C 18.050781 -20.363281 18.292969 -21.097656 18.292969 -22.101562 C 18.292969 -23.0625 18.089844 -23.738281 17.679688 -24.140625 C 17.261719 -24.550781 16.582031 -24.753906 15.640625 -24.753906 Z M 15.640625 -28.097656 C 17.492188 -28.097656 18.953125 -27.574219 20.019531 -26.527344 C 21.097656 -25.472656 21.636719 -23.996094 21.636719 -22.101562 C 21.636719 -20.136719 21.042969 -18.597656 19.863281 -17.480469 C 18.710938 -16.386719 17.140625 -15.839844 15.152344 -15.839844 L 11.5625 -15.839844 L 11.5625 -28.097656 Z M 15.640625 -28.097656 "/></g></g></g><g fill="#ffffff" fill-opacity="1"><g transform="translate(33.346047, 37.345352)"><g><path d="M 14.90625 -9.9375 L 14.90625 1.671875 L 1.894531 1.671875 L 1.894531 -35.671875 L 15.640625 -35.671875 C 20.558594 -35.671875 24.375 -34.550781 27.089844 -32.304688 C 29.898438 -29.976562 31.304688 -26.636719 31.304688 -22.28125 C 31.304688 -17.8125 29.835938 -14.339844 26.898438 -11.867188 C 24.050781 -9.464844 20.132812 -8.265625 15.152344 -8.265625 L 13.234375 -8.265625 L 13.234375 -9.9375 Z M 11.5625 -11.609375 L 15.152344 -11.609375 C 19.320312 -11.609375 22.519531 -12.546875 24.746094 -14.425781 C 26.890625 -16.230469 27.960938 -18.847656 27.960938 -22.28125 C 27.960938 -25.589844 26.960938 -28.070312 24.957031 -29.726562 C 22.863281 -31.460938 19.753906 -32.328125 15.640625 -32.328125 L 3.566406 -32.328125 L 3.566406 -34 L 5.234375 -34 L 5.234375 0 L 3.566406 0 L 3.566406 -1.671875 L 13.234375 -1.671875 L 13.234375 0 L 11.5625 0 Z M 15.640625 -24.753906 L 13.234375 -24.753906 L 13.234375 -26.425781 L 14.90625 -26.425781 L 14.90625 -17.511719 L 13.234375 -17.511719 L 13.234375 -19.183594 L 15.152344 -19.183594 C 16.253906 -19.183594 17.058594 -19.425781 17.566406 -19.90625 C 18.050781 -20.363281 18.292969 -21.097656 18.292969 -22.101562 C 18.292969 -23.0625 18.089844 -23.738281 17.679688 -24.140625 C 17.261719 -24.550781 16.582031 -24.753906 15.640625 -24.753906 Z M 15.640625 -28.097656 C 17.492188 -28.097656 18.953125 -27.574219 20.019531 -26.527344 C 21.097656 -25.472656 21.636719 -23.996094 21.636719 -22.101562 C 21.636719 -20.136719 21.042969 -18.597656 19.863281 -17.480469 C 18.710938 -16.386719 17.140625 -15.839844 15.152344 -15.839844 L 11.5625 -15.839844 L 11.5625 -28.097656 Z M 15.640625 -28.097656 "/></g></g></g><g fill="#ffffff" fill-opacity="1"><g transform="translate(64.315391, 37.345352)"><g><path d="M 27.695312 -7.753906 L 27.695312 1.671875 L 1.894531 1.671875 L 1.894531 -35.671875 L 14.949219 -35.671875 L 14.949219 -7.753906 L 13.28125 -7.753906 L 13.28125 -9.425781 L 27.695312 -9.425781 Z M 24.351562 -7.753906 L 26.023438 -7.753906 L 26.023438 -6.082031 L 11.609375 -6.082031 L 11.609375 -34 L 13.28125 -34 L 13.28125 -32.328125 L 3.566406 -32.328125 L 3.566406 -34 L 5.234375 -34 L 5.234375 0 L 3.566406 0 L 3.566406 -1.671875 L 26.023438 -1.671875 L 26.023438 0 L 24.351562 0 Z M 24.351562 -7.753906 "/></g></g></g><g fill="#ffffff" fill-opacity="1"><g transform="translate(90.784112, 37.345352)"><g><path d="M 17.023438 -21.101562 L 32.640625 -21.101562 L 32.640625 -1.191406 L 31.601562 -0.769531 C 28.957031 0.304688 26.675781 1.054688 24.757812 1.476562 C 22.8125 1.902344 20.796875 2.117188 18.714844 2.117188 C 13.050781 2.117188 8.535156 0.414062 5.164062 -2.992188 C 1.796875 -6.390625 0.109375 -11.054688 0.109375 -16.976562 C 0.109375 -22.980469 1.886719 -27.675781 5.441406 -31.066406 C 8.972656 -34.433594 13.769531 -36.117188 19.828125 -36.117188 C 21.960938 -36.117188 23.929688 -35.9375 25.730469 -35.570312 C 27.539062 -35.207031 29.421875 -34.601562 31.371094 -33.75 L 32.375 -33.3125 L 32.375 -20.625 L 29.824219 -22.195312 C 28.164062 -23.21875 26.582031 -23.964844 25.085938 -24.425781 C 23.613281 -24.882812 22.066406 -25.109375 20.453125 -25.109375 C 17.882812 -25.109375 16.039062 -24.496094 14.914062 -23.269531 C 13.75 -22 13.167969 -19.917969 13.167969 -17.023438 C 13.167969 -14.042969 13.671875 -11.890625 14.675781 -10.570312 C 15.574219 -9.390625 17.054688 -8.800781 19.117188 -8.800781 C 19.40625 -8.800781 19.703125 -8.820312 20.007812 -8.855469 C 20.300781 -8.890625 20.570312 -8.941406 20.816406 -9.007812 L 21.257812 -7.398438 L 19.585938 -7.398438 L 19.585938 -12.121094 L 21.257812 -12.121094 L 21.257812 -10.449219 L 15.351562 -10.449219 L 15.351562 -21.101562 Z M 17.023438 -17.757812 L 17.023438 -19.429688 L 18.695312 -19.429688 L 18.695312 -12.121094 L 17.023438 -12.121094 L 17.023438 -13.792969 L 22.925781 -13.792969 L 22.925781 -6.121094 L 21.695312 -5.785156 C 21.289062 -5.675781 20.859375 -5.589844 20.40625 -5.539062 C 19.96875 -5.484375 19.539062 -5.457031 19.117188 -5.457031 C 15.949219 -5.457031 13.582031 -6.488281 12.015625 -8.546875 C 10.554688 -10.464844 9.824219 -13.289062 9.824219 -17.023438 C 9.824219 -20.78125 10.699219 -23.617188 12.449219 -25.527344 C 14.234375 -27.476562 16.902344 -28.453125 20.453125 -28.453125 C 22.40625 -28.453125 24.277344 -28.175781 26.070312 -27.621094 C 27.839844 -27.074219 29.675781 -26.214844 31.582031 -25.039062 L 30.703125 -23.617188 L 29.03125 -23.617188 L 29.03125 -32.21875 L 30.703125 -32.21875 L 30.035156 -30.6875 C 28.300781 -31.441406 26.648438 -31.976562 25.070312 -32.296875 C 23.484375 -32.617188 21.738281 -32.773438 19.828125 -32.773438 C 14.660156 -32.773438 10.632812 -31.398438 7.75 -28.648438 C 4.886719 -25.917969 3.453125 -22.027344 3.453125 -16.976562 C 3.453125 -11.96875 4.816406 -8.089844 7.539062 -5.34375 C 10.253906 -2.597656 13.980469 -1.226562 18.714844 -1.226562 C 20.554688 -1.226562 22.332031 -1.414062 24.039062 -1.789062 C 25.773438 -2.167969 27.875 -2.859375 30.339844 -3.863281 L 30.96875 -2.316406 L 29.300781 -2.316406 L 29.300781 -19.429688 L 30.96875 -19.429688 L 30.96875 -17.757812 Z M 17.023438 -17.757812 "/></g></g></g><g clip-path="url(#60c354beca)"><g fill="#ffffff" fill-opacity="1"><g transform="translate(2.376702, 71.604412)"><g><path d="M 17.738281 -9.054688 L 11.960938 1.671875 L -2.519531 1.671875 L 9.933594 -18.914062 L 11.363281 -18.046875 L 9.960938 -17.136719 L -2.101562 -35.671875 L 12.503906 -35.671875 L 18.332031 -25.664062 L 16.890625 -24.820312 L 16.890625 -26.492188 L 17.066406 -26.492188 L 17.066406 -24.820312 L 15.601562 -25.625 L 21.113281 -35.671875 L 35.597656 -35.671875 L 23.207031 -15.953125 L 21.789062 -16.84375 L 23.1875 -17.761719 L 35.9375 1.671875 L 21.378906 1.671875 L 14.96875 -8.988281 L 16.398438 -9.847656 L 16.398438 -8.175781 L 16.265625 -8.175781 L 16.265625 -9.847656 Z M 15.265625 -11.519531 L 17.34375 -11.519531 L 23.757812 -0.863281 L 22.324219 0 L 22.324219 -1.671875 L 32.84375 -1.671875 L 32.84375 0 L 31.445312 0.917969 L 19.804688 -16.824219 L 31.160156 -34.890625 L 32.574219 -34 L 32.574219 -32.328125 L 22.101562 -32.328125 L 22.101562 -34 L 23.566406 -33.195312 L 18.054688 -23.148438 L 15.929688 -23.148438 L 10.097656 -33.160156 L 11.542969 -34 L 11.542969 -32.328125 L 0.980469 -32.328125 L 0.980469 -34 L 2.382812 -34.914062 L 13.335938 -18.078125 L 1.875 0.863281 L 0.445312 0 L 0.445312 -1.671875 L 10.960938 -1.671875 L 10.960938 0 L 9.492188 -0.792969 L 14.792969 -10.640625 Z M 15.265625 -11.519531 "/></g></g></g></g><g fill="#ffffff" fill-opacity="1"><g transform="translate(35.663176, 71.604412)"><g><path d="M 11.496094 2.117188 C 10.679688 2.117188 9.878906 2.085938 9.089844 2.023438 C 8.324219 1.960938 7.570312 1.882812 6.832031 1.792969 L 6.804688 1.789062 L 6.773438 1.785156 C 5.820312 1.628906 4.960938 1.46875 4.203125 1.296875 C 3.390625 1.113281 2.679688 0.90625 2.066406 0.667969 L 1.003906 0.253906 L 1.003906 -11.222656 L 3.304688 -10.28125 C 3.898438 -10.039062 4.539062 -9.824219 5.234375 -9.632812 C 5.957031 -9.433594 6.730469 -9.25 7.558594 -9.078125 L 7.585938 -9.074219 L 7.609375 -9.066406 C 8.40625 -8.875 9.160156 -8.738281 9.878906 -8.65625 C 10.605469 -8.574219 11.292969 -8.535156 11.941406 -8.535156 C 13.222656 -8.535156 14.121094 -8.714844 14.636719 -9.074219 C 14.964844 -9.308594 15.128906 -9.726562 15.128906 -10.339844 C 15.128906 -10.632812 15.085938 -10.863281 15 -11.027344 C 14.933594 -11.15625 14.824219 -11.265625 14.671875 -11.355469 C 14.4375 -11.496094 14.019531 -11.613281 13.425781 -11.707031 C 12.707031 -11.820312 11.796875 -11.875 10.695312 -11.875 L 4.96875 -11.875 L 4.96875 -22.4375 L 10.695312 -22.4375 C 12.21875 -22.4375 13.316406 -22.644531 13.980469 -23.054688 C 14.199219 -23.191406 14.355469 -23.34375 14.449219 -23.511719 C 14.546875 -23.691406 14.59375 -23.917969 14.59375 -24.195312 C 14.59375 -24.6875 14.492188 -25.011719 14.289062 -25.167969 C 13.949219 -25.425781 13.300781 -25.554688 12.34375 -25.554688 C 11.671875 -25.554688 10.988281 -25.492188 10.285156 -25.359375 C 9.554688 -25.226562 8.804688 -25.035156 8.042969 -24.789062 C 7.269531 -24.523438 6.546875 -24.226562 5.882812 -23.898438 C 5.230469 -23.582031 4.644531 -23.238281 4.121094 -22.871094 L 1.492188 -21.03125 L 1.492188 -33.464844 L 2.402344 -33.929688 C 3.816406 -34.652344 5.527344 -35.214844 7.539062 -35.617188 C 9.503906 -36.011719 11.476562 -36.207031 13.457031 -36.207031 C 17.5625 -36.207031 20.785156 -35.265625 23.125 -33.386719 C 25.578125 -31.417969 26.804688 -28.726562 26.804688 -25.3125 C 26.804688 -23.089844 26.257812 -21.109375 25.167969 -19.367188 C 24.019531 -17.53125 22.492188 -16.347656 20.59375 -15.8125 L 20.140625 -17.421875 L 21.8125 -17.421875 L 21.8125 -17.246094 L 20.140625 -17.246094 L 20.5 -18.878906 C 22.523438 -18.4375 24.179688 -17.398438 25.464844 -15.761719 C 26.746094 -14.136719 27.382812 -12.238281 27.382812 -10.070312 C 27.382812 -6.210938 25.902344 -3.1875 22.941406 -0.996094 C 20.136719 1.078125 16.320312 2.117188 11.496094 2.117188 Z M 11.496094 -1.226562 C 15.585938 -1.226562 18.738281 -2.042969 20.953125 -3.683594 C 23.011719 -5.207031 24.039062 -7.335938 24.039062 -10.070312 C 24.039062 -11.46875 23.640625 -12.675781 22.839844 -13.695312 C 22.046875 -14.703125 21.027344 -15.339844 19.785156 -15.613281 L 18.472656 -15.898438 L 18.472656 -18.691406 L 19.691406 -19.03125 C 20.761719 -19.332031 21.644531 -20.035156 22.335938 -21.140625 C 23.085938 -22.339844 23.460938 -23.730469 23.460938 -25.3125 C 23.460938 -27.660156 22.652344 -29.480469 21.035156 -30.78125 C 19.304688 -32.171875 16.777344 -32.863281 13.457031 -32.863281 C 11.695312 -32.863281 9.941406 -32.6875 8.191406 -32.339844 C 6.488281 -32 5.066406 -31.535156 3.925781 -30.953125 L 3.164062 -32.441406 L 4.835938 -32.441406 L 4.835938 -24.242188 L 3.164062 -24.242188 L 2.207031 -25.609375 C 2.871094 -26.078125 3.605469 -26.507812 4.410156 -26.902344 C 5.203125 -27.289062 6.070312 -27.644531 7.019531 -27.972656 C 7.917969 -28.261719 8.804688 -28.484375 9.675781 -28.648438 C 10.582031 -28.816406 11.46875 -28.898438 12.34375 -28.898438 C 14.058594 -28.898438 15.386719 -28.539062 16.324219 -27.816406 C 17.398438 -26.992188 17.9375 -25.785156 17.9375 -24.195312 C 17.9375 -23.347656 17.75 -22.585938 17.378906 -21.90625 C 17.003906 -21.222656 16.457031 -20.65625 15.742188 -20.214844 C 14.535156 -19.46875 12.855469 -19.09375 10.695312 -19.09375 L 6.640625 -19.09375 L 6.640625 -20.765625 L 8.3125 -20.765625 L 8.3125 -13.546875 L 6.640625 -13.546875 L 6.640625 -15.21875 L 10.695312 -15.21875 C 13.378906 -15.21875 15.277344 -14.886719 16.386719 -14.222656 C 17.082031 -13.808594 17.609375 -13.257812 17.964844 -12.566406 C 18.300781 -11.917969 18.472656 -11.175781 18.472656 -10.339844 C 18.472656 -8.570312 17.832031 -7.238281 16.558594 -6.34375 C 15.46875 -5.574219 13.929688 -5.191406 11.941406 -5.191406 C 11.167969 -5.191406 10.355469 -5.238281 9.503906 -5.335938 C 8.648438 -5.433594 7.753906 -5.59375 6.828125 -5.816406 L 7.21875 -7.441406 L 6.878906 -5.804688 C 5.984375 -5.992188 5.140625 -6.191406 4.347656 -6.410156 C 3.527344 -6.636719 2.757812 -6.894531 2.039062 -7.1875 L 2.671875 -8.734375 L 4.34375 -8.734375 L 4.34375 -0.890625 L 2.671875 -0.890625 L 3.28125 -2.449219 C 3.734375 -2.269531 4.289062 -2.109375 4.933594 -1.964844 C 5.628906 -1.808594 6.417969 -1.660156 7.308594 -1.515625 L 7.039062 0.132812 L 7.25 -1.523438 C 7.9375 -1.4375 8.640625 -1.367188 9.359375 -1.308594 C 10.054688 -1.253906 10.769531 -1.226562 11.496094 -1.226562 Z M 11.496094 -1.226562 "/></g></g></g><g fill="#234777" fill-opacity="1"><g transform="translate(2.376702, 37.345352)"><g><path d="M 13.234375 -9.9375 L 13.234375 0 L 3.5625 0 L 3.5625 -34 L 15.640625 -34 C 20.160156 -34 23.625 -33.003906 26.03125 -31.015625 C 28.4375 -29.023438 29.640625 -26.113281 29.640625 -22.28125 C 29.640625 -18.332031 28.367188 -15.285156 25.828125 -13.140625 C 23.285156 -11.003906 19.726562 -9.9375 15.15625 -9.9375 Z M 15.640625 -26.421875 L 13.234375 -26.421875 L 13.234375 -17.515625 L 15.15625 -17.515625 C 16.695312 -17.515625 17.882812 -17.90625 18.71875 -18.6875 C 19.550781 -19.476562 19.96875 -20.617188 19.96875 -22.109375 C 19.96875 -23.523438 19.59375 -24.597656 18.84375 -25.328125 C 18.101562 -26.054688 17.035156 -26.421875 15.640625 -26.421875 Z M 15.640625 -26.421875 "/></g></g></g><g fill="#234777" fill-opacity="1"><g transform="translate(33.346047, 37.345352)"><g><path d="M 13.234375 -9.9375 L 13.234375 0 L 3.5625 0 L 3.5625 -34 L 15.640625 -34 C 20.160156 -34 23.625 -33.003906 26.03125 -31.015625 C 28.4375 -29.023438 29.640625 -26.113281 29.640625 -22.28125 C 29.640625 -18.332031 28.367188 -15.285156 25.828125 -13.140625 C 23.285156 -11.003906 19.726562 -9.9375 15.15625 -9.9375 Z M 15.640625 -26.421875 L 13.234375 -26.421875 L 13.234375 -17.515625 L 15.15625 -17.515625 C 16.695312 -17.515625 17.882812 -17.90625 18.71875 -18.6875 C 19.550781 -19.476562 19.96875 -20.617188 19.96875 -22.109375 C 19.96875 -23.523438 19.59375 -24.597656 18.84375 -25.328125 C 18.101562 -26.054688 17.035156 -26.421875 15.640625 -26.421875 Z M 15.640625 -26.421875 "/></g></g></g><g fill="#234777" fill-opacity="1"><g transform="translate(64.315391, 37.345352)"><g><path d="M 26.03125 -7.75 L 26.03125 0 L 3.5625 0 L 3.5625 -34 L 13.28125 -34 L 13.28125 -7.75 Z M 26.03125 -7.75 "/></g></g></g><g fill="#234777" fill-opacity="1"><g transform="translate(90.784112, 37.345352)"><g><path d="M 17.015625 -19.421875 L 30.96875 -19.421875 L 30.96875 -2.3125 C 28.414062 -1.269531 26.222656 -0.546875 24.390625 -0.140625 C 22.566406 0.253906 20.675781 0.453125 18.71875 0.453125 C 13.519531 0.453125 9.394531 -1.082031 6.34375 -4.15625 C 3.300781 -7.238281 1.78125 -11.515625 1.78125 -16.984375 C 1.78125 -22.503906 3.382812 -26.796875 6.59375 -29.859375 C 9.800781 -32.921875 14.210938 -34.453125 19.828125 -34.453125 C 21.847656 -34.453125 23.703125 -34.28125 25.390625 -33.9375 C 27.085938 -33.59375 28.859375 -33.019531 30.703125 -32.21875 L 30.703125 -23.625 C 28.921875 -24.71875 27.210938 -25.515625 25.578125 -26.015625 C 23.941406 -26.523438 22.234375 -26.78125 20.453125 -26.78125 C 17.390625 -26.78125 15.128906 -25.984375 13.671875 -24.390625 C 12.222656 -22.804688 11.5 -20.347656 11.5 -17.015625 C 11.5 -13.660156 12.113281 -11.171875 13.34375 -9.546875 C 14.582031 -7.929688 16.507812 -7.125 19.125 -7.125 C 19.476562 -7.125 19.835938 -7.144531 20.203125 -7.1875 C 20.578125 -7.238281 20.925781 -7.304688 21.25 -7.390625 L 21.25 -12.125 L 17.015625 -12.125 Z M 17.015625 -19.421875 "/></g></g></g><g fill="#234777" fill-opacity="1"><g transform="translate(2.376702, 71.604412)"><g><path d="M 16.265625 -9.84375 L 10.96875 0 L 0.453125 0 L 11.359375 -18.046875 L 0.984375 -34 L 11.546875 -34 L 16.890625 -24.828125 L 17.0625 -24.828125 L 22.109375 -34 L 32.578125 -34 L 21.796875 -16.84375 L 32.84375 0 L 22.328125 0 L 16.40625 -9.84375 Z M 16.265625 -9.84375 "/></g></g></g><g fill="#234777" fill-opacity="1"><g transform="translate(35.663176, 71.604412)"><g><path d="M 11.5 0.453125 C 10.726562 0.453125 9.96875 0.421875 9.21875 0.359375 C 8.476562 0.296875 7.753906 0.222656 7.046875 0.140625 C 6.117188 -0.015625 5.289062 -0.171875 4.5625 -0.328125 C 3.832031 -0.492188 3.203125 -0.679688 2.671875 -0.890625 L 2.671875 -8.734375 C 3.328125 -8.460938 4.03125 -8.222656 4.78125 -8.015625 C 5.539062 -7.804688 6.351562 -7.613281 7.21875 -7.4375 C 8.082031 -7.226562 8.90625 -7.078125 9.6875 -6.984375 C 10.476562 -6.898438 11.226562 -6.859375 11.9375 -6.859375 C 13.570312 -6.859375 14.789062 -7.140625 15.59375 -7.703125 C 16.394531 -8.273438 16.796875 -9.15625 16.796875 -10.34375 C 16.796875 -11.46875 16.375 -12.28125 15.53125 -12.78125 C 14.6875 -13.289062 13.070312 -13.546875 10.6875 -13.546875 L 6.640625 -13.546875 L 6.640625 -20.765625 L 10.6875 -20.765625 C 12.53125 -20.765625 13.921875 -21.050781 14.859375 -21.625 C 15.796875 -22.207031 16.265625 -23.066406 16.265625 -24.203125 C 16.265625 -25.234375 15.941406 -25.992188 15.296875 -26.484375 C 14.660156 -26.984375 13.675781 -27.234375 12.34375 -27.234375 C 11.570312 -27.234375 10.785156 -27.15625 9.984375 -27 C 9.179688 -26.851562 8.363281 -26.644531 7.53125 -26.375 C 6.664062 -26.082031 5.867188 -25.753906 5.140625 -25.390625 C 4.421875 -25.035156 3.757812 -24.648438 3.15625 -24.234375 L 3.15625 -32.4375 C 4.4375 -33.09375 6.003906 -33.601562 7.859375 -33.96875 C 9.722656 -34.34375 11.585938 -34.53125 13.453125 -34.53125 C 17.171875 -34.53125 20.046875 -33.710938 22.078125 -32.078125 C 24.117188 -30.453125 25.140625 -28.195312 25.140625 -25.3125 C 25.140625 -23.40625 24.675781 -21.71875 23.75 -20.25 C 22.832031 -18.78125 21.628906 -17.835938 20.140625 -17.421875 L 20.140625 -17.25 C 21.773438 -16.894531 23.113281 -16.054688 24.15625 -14.734375 C 25.195312 -13.410156 25.71875 -11.859375 25.71875 -10.078125 C 25.71875 -6.773438 24.460938 -4.191406 21.953125 -2.328125 C 19.441406 -0.472656 15.957031 0.453125 11.5 0.453125 Z M 11.5 0.453125 "/></g></g></g></g></g><g clip-path="url(#819806ccb9)"><g transform="matrix(1, 0, 0, 1, 141, 217)"><g clip-path="url(#4d0aec88ef)"><g clip-path="url(#01fa1facd7)"><g mask="url(#e670a8820d)"><g><g clip-path="url(#3e4407b275)"><g clip-path="url(#e926fc1842)"><path fill="url(#0c5d9e1d09)" d="M 20.253906 1.347656 L 20.253906 68.847656 L 138.746094 68.847656 L 138.746094 1.347656 Z M 20.253906 1.347656 " fill-rule="nonzero"/></g></g></g></g></g></g></g></g></svg>